# xmcd
#
# Track frame offsets: 
#        150
#        11074
#        21292
#        31765
#        44643
#        56363
#        68041
#        79476
#        90086
#        101429
#        113225
#        124614
#        137584
#        148481
#        161340
#        170951
#        182542
#        193758
#        203848
#        215452
#        226756
#        236753
#        247113
#        259038
#        272274
#        281253
#        293777
#        302813
#        312769
#        323941
#
# Disc length: 4434 seconds
#
# Revision: 0
# Processed by: cddbd v1.5.2PL0 Copyright (c) Steve Scherf et al.
# Submitted via: ExactAudioCopy v0.99pb5
#
DISCID=ab11501e
DTITLE=Shirley And Lee - Let The Good Times Roll  - Best of Aladdin Re
DTITLE=cords 1952-59
DYEAR=2000
DGENRE=R&B
TTITLE0=Let the good times roll
TTITLE1=A little word
TTITLE2=I feel good
TTITLE3=All i want to do is cry
TTITLE4=You´d be thinking of me
TTITLE5=Rock all night
TTITLE6=That´s what i wanna do
TTITLE7=I´m gone
TTITLE8=Sweethearts
TTITLE9=That´s what i´ll do
TTITLE10=Shirley, come back to me
TTITLE11=Shirley´s back
TTITLE12=Don´t you know i love you
TTITLE13=Feel so good
TTITLE14=Come on and have your fun
TTITLE15=I´ll thrill you
TTITLE16=Don´t leave me here to cry
TTITLE17=Before i go
TTITLE18=The reason why
TTITLE19=I didn´t want you
TTITLE20=I´ll do it (Deed i do)
TTITLE21=Everybody´s rockin´
TTITLE22=Rockin´ with the clock
TTITLE23=Lee´s dream
TTITLE24=The flirt
TTITLE25=Korea
TTITLE26=Comin´ over
TTITLE27=Marry me
TTITLE28=When day is done
TTITLE29=True love (never dies)
EXTD=
EXTT0=
EXTT1=
EXTT2=
EXTT3=
EXTT4=
EXTT5=
EXTT6=
EXTT7=
EXTT8=
EXTT9=
EXTT10=
EXTT11=
EXTT12=
EXTT13=
EXTT14=
EXTT15=
EXTT16=
EXTT17=
EXTT18=
EXTT19=
EXTT20=
EXTT21=
EXTT22=
EXTT23=
EXTT24=
EXTT25=
EXTT26=
EXTT27=
EXTT28=
EXTT29=
PLAYORDER=
